<svg class="animated" id="freepik_stories-tablet-login" xmlns="http://www.w3.org/2000/svg" viewBox="0 0 500 500" version="1.1" xmlns:xlink="http://www.w3.org/1999/xlink" xmlns:svgjs="http://svgjs.com/svgjs"><style>svg#freepik_stories-tablet-login:not(.animated) .animable {opacity: 0;}svg#freepik_stories-tablet-login.animated #freepik--Screen--inject-1 {animation: 1s 1 forwards cubic-bezier(.36,-0.01,.5,1.38) slideUp;animation-delay: 0s;}            @keyframes slideUp {                0% {                    opacity: 0;                    transform: translateY(30px);                }                100% {                    opacity: 1;                    transform: inherit;                }            }        </style><g id="freepik--background-simple--inject-1" style="transform-origin: 250.734px 220.554px 0px;" class="animable"><path d="M298.67,208.3c-69.14-19.56-95-169.43-196-88.75C31,176.78,76.55,318.53,167,303c54.76-9.43,46.29-10.54,93,16.8,47.37,27.69,99.36,41.87,149.23-5.93,25.8-24.74,35.43-85.54,9.82-117.3C387.08,156.79,340.91,220.25,298.67,208.3Z" style="fill: rgb(255, 193, 0); transform-origin: 250.734px 220.554px 0px;" id="el68cfadyhhcc" class="animable"></path><g id="elu0ej59f55zq"><path d="M298.67,208.3c-69.14-19.56-95-169.43-196-88.75C31,176.78,76.55,318.53,167,303c54.76-9.43,46.29-10.54,93,16.8,47.37,27.69,99.36,41.87,149.23-5.93,25.8-24.74,35.43-85.54,9.82-117.3C387.08,156.79,340.91,220.25,298.67,208.3Z" style="fill: rgb(255, 255, 255); opacity: 0.9; transform-origin: 250.734px 220.554px 0px;" class="animable"></path></g></g><g id="freepik--Shadow--inject-1" style="transform-origin: 250px 416.24px 0px;" class="animable"><ellipse id="freepik--path--inject-1" cx="250" cy="416.24" rx="193.89" ry="11.32" style="fill: rgb(245, 245, 245); transform-origin: 250px 416.24px 0px;" class="animable"></ellipse></g><g id="freepik--Plant--inject-1" style="transform-origin: 102.699px 346.313px 0px;" class="animable"><path d="M105.42,391.16S104,381,97.53,379.87s-4.55-6-6.24-7.94-6.13,3.72-2.33,9.16.69,3.73,2.33,8.79S106,399.59,105.42,391.16Z" style="fill: rgb(38, 50, 56); transform-origin: 96.4516px 383.674px 0px;" id="elg9kt8dq3aoe" class="animable"></path><g id="eljwb0tv4p1l"><path d="M105.42,391.16S104,381,97.53,379.87s-4.55-6-6.24-7.94-6.13,3.72-2.33,9.16.69,3.73,2.33,8.79S106,399.59,105.42,391.16Z" style="fill: rgb(255, 255, 255); isolation: isolate; opacity: 0.2; transform-origin: 96.4516px 383.674px 0px;" class="animable"></path></g><path d="M105.15,398.21a.45.45,0,0,1-.41-.25c0-.11-5-10.69-2.41-27.54a70.77,70.77,0,0,1,4-14.1c3.14-8.58,5.63-15.36-.06-27.74-1.8-3.92-3.63-7.57-5.41-11.1-6.68-13.26-12-23.73-8-34.33a.45.45,0,0,1,.58-.27.46.46,0,0,1,.27.58c-3.79,10.24,1.41,20.55,8,33.61,1.78,3.54,3.63,7.2,5.43,11.13,5.85,12.72,3.17,20,.08,28.43a69.16,69.16,0,0,0-3.94,13.92c-2.57,16.57,2.28,26.92,2.33,27a.46.46,0,0,1-.22.6A.43.43,0,0,1,105.15,398.21Z" style="fill: rgb(38, 50, 56); transform-origin: 101.04px 340.531px 0px;" id="elq2f1mpvmgqa" class="animable"></path><path d="M101.39,395.73s-4.2-6.34,1.87-9.6,7.28-.63,11-3,6.6-8,7.24-4.39-3.7,5.7-2.16,7.36S109.17,398.59,101.39,395.73Z" style="fill: rgb(38, 50, 56); transform-origin: 110.77px 386.886px 0px;" id="el8xjq2ujp6nh" class="animable"></path><path d="M91.47,288.59s-4.1-12.45,5.22-12.71S95.74,287.27,91.47,288.59Z" style="fill: rgb(38, 50, 56); transform-origin: 95.5263px 282.233px 0px;" id="elfswtrj7w1sl" class="animable"></path><path d="M99.57,298.17s2.77-11.32,9.39-8.94S106.16,298.38,99.57,298.17Z" style="fill: rgb(38, 50, 56); transform-origin: 105.393px 293.538px 0px;" id="eli2v7185invc" class="animable"></path><path d="M88.34,299.15s1-9-6-9.22S78.43,297.69,88.34,299.15Z" style="fill: rgb(38, 50, 56); transform-origin: 83.4688px 294.538px 0px;" id="el73gmw6u2yp4" class="animable"></path><path d="M93,317.58s-9.42-8.39-12.8-2.14S87.31,323,93,317.58Z" style="fill: rgb(38, 50, 56); transform-origin: 86.2717px 317.054px 0px;" id="elxv06nmybx3" class="animable"></path><path d="M109.68,316.09s1.77-13.94,9.38-9.57S116.31,317.49,109.68,316.09Z" style="fill: rgb(38, 50, 56); transform-origin: 115.709px 310.977px 0px;" id="el7ydwh8e4j0v" class="animable"></path><path d="M116.38,336.06s-5.62-14.09,4.82-12.5S123.74,332.64,116.38,336.06Z" style="fill: rgb(38, 50, 56); transform-origin: 120.551px 329.747px 0px;" id="el9tsff0gew3q" class="animable"></path><path d="M100.36,341.09S91.54,330.71,84.81,334,83.58,347.62,100.36,341.09Z" style="fill: rgb(38, 50, 56); transform-origin: 91.1862px 338.283px 0px;" id="elbillodl4bbf" class="animable"></path><path d="M108.36,364.1s7.51-16.68,14.19-11.06S118.29,367.07,108.36,364.1Z" style="fill: rgb(38, 50, 56); transform-origin: 116.48px 358.3px 0px;" id="elnr6gf86dcyr" class="animable"></path><path d="M97.45,363.12s2-12.93-5.45-11.89S86.51,360.18,97.45,363.12Z" style="fill: rgb(38, 50, 56); transform-origin: 92.6217px 357.145px 0px;" id="el6gumbeta2g5" class="animable"></path><g id="elkcet8qylk6o"><g style="isolation: isolate; opacity: 0.2; transform-origin: 102.39px 320.297px 0px;" class="animable"><path d="M91.47,288.59s-4.1-12.45,5.22-12.71S95.74,287.27,91.47,288.59Z" style="fill: rgb(255, 255, 255); transform-origin: 95.5263px 282.233px 0px;" id="elhr3ycdwygyp" class="animable"></path><path d="M99.57,298.17s2.77-11.32,9.39-8.94S106.16,298.38,99.57,298.17Z" style="fill: rgb(255, 255, 255); transform-origin: 105.393px 293.538px 0px;" id="elnc22mlg1nk" class="animable"></path><path d="M88.34,299.15s1-9-6-9.22S78.43,297.69,88.34,299.15Z" style="fill: rgb(255, 255, 255); transform-origin: 83.4688px 294.538px 0px;" id="elgdjx38q030d" class="animable"></path><path d="M93,317.58s-9.42-8.39-12.8-2.14S87.31,323,93,317.58Z" style="fill: rgb(255, 255, 255); transform-origin: 86.2717px 317.054px 0px;" id="el9rttf8fexji" class="animable"></path><path d="M109.68,316.09s1.77-13.94,9.38-9.57S116.31,317.49,109.68,316.09Z" style="fill: rgb(255, 255, 255); transform-origin: 115.709px 310.977px 0px;" id="elon22v3w6jf" class="animable"></path><path d="M116.38,336.06s-5.62-14.09,4.82-12.5S123.74,332.64,116.38,336.06Z" style="fill: rgb(255, 255, 255); transform-origin: 120.551px 329.747px 0px;" id="el6iawyiox6b" class="animable"></path><path d="M100.36,341.09S91.54,330.71,84.81,334,83.58,347.62,100.36,341.09Z" style="fill: rgb(255, 255, 255); transform-origin: 91.1862px 338.283px 0px;" id="elcyj66m6bynu" class="animable"></path><path d="M108.36,364.1s7.51-16.68,14.19-11.06S118.29,367.07,108.36,364.1Z" style="fill: rgb(255, 255, 255); transform-origin: 116.48px 358.3px 0px;" id="eluczj6cqk82a" class="animable"></path><path d="M97.45,363.12s2-12.93-5.45-11.89S86.51,360.18,97.45,363.12Z" style="fill: rgb(255, 255, 255); transform-origin: 92.6217px 357.145px 0px;" id="el0x7f4hpyaz7" class="animable"></path></g></g><path d="M95.5,305.67a.46.46,0,0,1-.22-.06c-5.51-3.09-9.48-8.92-9.65-9.17a.46.46,0,0,1,.13-.63.44.44,0,0,1,.62.13c0,.05,3.82,5.61,8.94,8.65.85-1.56,3.88-6.94,6.41-8.46a.45.45,0,0,1,.62.16.43.43,0,0,1-.16.61c-2.69,1.62-6.25,8.45-6.29,8.52a.44.44,0,0,1-.27.23Z" style="fill: rgb(38, 50, 56); transform-origin: 93.9871px 300.702px 0px;" id="elsh01cgrcv9k" class="animable"></path><path d="M104.05,323a.47.47,0,0,1-.28-.09c-7.84-5.93-17.87-5.68-18-5.68a.48.48,0,0,1-.47-.44.45.45,0,0,1,.44-.46c.1,0,10.11-.26,18.15,5.57,1-1.68,5.08-7.75,10.25-10.79a.44.44,0,0,1,.62.16.43.43,0,0,1-.16.61c-5.7,3.36-10.15,10.83-10.2,10.9a.41.41,0,0,1-.3.21Z" style="fill: rgb(38, 50, 56); transform-origin: 100.064px 317.021px 0px;" id="elphg5frgpfi" class="animable"></path><path d="M109.48,345.84a.46.46,0,0,1-.22-.06c-.12-.07-11.58-6.66-19.87-6.82a.45.45,0,1,1,0-.9c7.9.15,18.19,5.75,20,6.78,5.32-4.48,9.54-15.5,9.59-15.61a.45.45,0,1,1,.84.32c-.18.47-4.48,11.68-10.1,16.19A.43.43,0,0,1,109.48,345.84Z" style="fill: rgb(38, 50, 56); transform-origin: 104.398px 337.38px 0px;" id="el18gwgs6ypv1" class="animable"></path><path d="M102.85,369.49a.46.46,0,0,1-.23-.06c-4.33-2.48-9.93-13.34-10.17-13.8a.45.45,0,0,1,.81-.41c0,.11,5.41,10.49,9.48,13.21a25.86,25.86,0,0,1,12.6-8.05.46.46,0,0,1,.56.31.45.45,0,0,1-.3.56,24.78,24.78,0,0,0-12.39,8A.42.42,0,0,1,102.85,369.49Z" style="fill: rgb(38, 50, 56); transform-origin: 104.16px 362.23px 0px;" id="elftasi07fvm9" class="animable"></path><path d="M102,394.22s-3.61-5.74-7.68-6.56S88.53,382.15,87,385,89.67,397.15,102,394.22Z" style="fill: rgb(38, 50, 56); transform-origin: 94.3495px 389.438px 0px;" id="el89w87pl58ua" class="animable"></path><polygon points="83.32 416.75 122.7 416.75 125.34 392.46 80.69 392.46 83.32 416.75" style="fill: rgb(255, 193, 0); transform-origin: 103.015px 404.605px 0px;" id="elljf5jpdlhw" class="animable"></polygon><polygon points="79.77 397.06 126.26 397.06 126.85 391.92 79.17 391.92 79.77 397.06" style="fill: rgb(255, 193, 0); transform-origin: 103.01px 394.49px 0px;" id="el7h9s5nco907" class="animable"></polygon><g id="el7574kh994pw"><polygon points="79.77 397.06 126.26 397.06 126.85 391.92 79.17 391.92 79.77 397.06" style="fill: rgb(255, 255, 255); opacity: 0.3; transform-origin: 103.01px 394.49px 0px;" class="animable"></polygon></g></g><g id="freepik--Streetlight--inject-1" style="transform-origin: 416.915px 280.125px 0px;" class="animable"><polygon points="428.9 154.06 425.48 186.91 408.36 186.91 404.94 154.06 428.9 154.06" style="fill: rgb(38, 50, 56); transform-origin: 416.92px 170.485px 0px;" id="elpw2kk7uidrk" class="animable"></polygon><g id="elbihj4duynhb"><polygon points="428.9 154.06 425.48 186.91 408.36 186.91 404.94 154.06 428.9 154.06" style="fill: rgb(255, 255, 255); opacity: 0.3; transform-origin: 416.92px 170.485px 0px;" class="animable"></polygon></g><rect x="413.73" y="179.85" width="6.37" height="236.9" style="fill: rgb(38, 50, 56); transform-origin: 416.915px 298.3px 0px;" id="el8ov1ndo1ok" class="animable"></rect><g id="el508t9h9921m"><rect x="413.73" y="179.85" width="6.37" height="236.9" style="fill: rgb(255, 255, 255); opacity: 0.3; transform-origin: 416.915px 298.3px 0px;" class="animable"></rect></g><polygon points="423.68 184.91 410.16 184.91 407.16 156.06 426.68 156.06 423.68 184.91" style="fill: rgb(255, 193, 0); transform-origin: 416.92px 170.485px 0px;" id="elzi4gm7wq8h" class="animable"></polygon><g id="eltsitrzdeah"><polygon points="423.68 184.91 410.16 184.91 407.16 156.06 426.68 156.06 423.68 184.91" style="fill: rgb(255, 255, 255); isolation: isolate; opacity: 0.4; transform-origin: 416.92px 170.485px 0px;" class="animable"></polygon></g><polygon points="415.14 185.36 414.22 185.36 413.22 155.06 414.14 155.06 415.14 185.36" style="fill: rgb(38, 50, 56); transform-origin: 414.18px 170.21px 0px;" id="el36nan2mhwqs" class="animable"></polygon><g id="eld23hcwvo8rn"><polygon points="415.14 185.36 414.22 185.36 413.22 155.06 414.14 155.06 415.14 185.36" style="fill: rgb(255, 255, 255); opacity: 0.3; transform-origin: 414.18px 170.21px 0px;" class="animable"></polygon></g><g id="elzoro76g9m8"><polygon points="428.9 154.06 425.48 186.91 414.72 186.91 413.43 154.06 428.9 154.06" style="fill: rgb(255, 255, 255); opacity: 0.2; transform-origin: 421.165px 170.485px 0px;" class="animable"></polygon></g><path d="M416.92,143.5s-10.16,10-17.94,10l2.42,1.59h31l2.41-1.59C427.07,153.52,416.92,143.5,416.92,143.5Z" style="fill: rgb(38, 50, 56); transform-origin: 416.895px 149.295px 0px;" id="ellqpwvtqw5d" class="animable"></path><g id="elkccro1y4da"><path d="M434.85,153.52l-2.41,1.58h-31L399,153.52c7.78,0,17.93-10,17.93-10S427.07,153.52,434.85,153.52Z" style="fill: rgb(255, 255, 255); opacity: 0.4; transform-origin: 416.925px 149.31px 0px;" class="animable"></path></g><g id="el5q0tyi9o3y4"><path d="M434.85,153.52l-2.41,1.58H412.28c-.61-1-1-1.71-1-1.71,5.41-2.51,5.68-9.89,5.68-9.89S427.07,153.52,434.85,153.52Z" style="fill: rgb(255, 255, 255); opacity: 0.2; transform-origin: 423.065px 149.3px 0px;" class="animable"></path></g><path d="M411.45,412.37h10.94a2.47,2.47,0,0,1,2.47,2.47v1.91a0,0,0,0,1,0,0H409a0,0,0,0,1,0,0v-1.91A2.47,2.47,0,0,1,411.45,412.37Z" style="fill: rgb(38, 50, 56); transform-origin: 416.93px 414.56px 0px;" id="elne7zn2g5g4c" class="animable"></path><g id="elrqmlubiht7j"><path d="M411.45,412.37h10.94a2.47,2.47,0,0,1,2.47,2.47v1.91a0,0,0,0,1,0,0H409a0,0,0,0,1,0,0v-1.91A2.47,2.47,0,0,1,411.45,412.37Z" style="fill: rgb(255, 255, 255); opacity: 0.5; transform-origin: 416.93px 414.56px 0px;" class="animable"></path></g></g><g id="freepik--Screen--inject-1" style="transform-origin: 174.72px 216.83px 0px;" class="animable animator-active"><rect x="101.6" y="117.54" width="146.24" height="198.58" rx="7.83" style="fill: rgb(255, 193, 0); transform-origin: 174.72px 216.83px 0px;" id="elsc06emunwi" class="animable"></rect><g id="eljfb8y4gorj"><rect x="101.6" y="117.54" width="146.24" height="198.58" rx="7.83" style="fill: rgb(255, 255, 255); isolation: isolate; opacity: 0.6; transform-origin: 174.72px 216.83px 0px;" class="animable"></rect></g><path d="M194.36,170.79a19.64,19.64,0,1,1-19.64-19.63A19.62,19.62,0,0,1,194.36,170.79Z" style="fill: rgb(255, 193, 0); transform-origin: 174.72px 170.8px 0px;" id="elf92hzw6ladt" class="animable"></path><g id="el5qr2fmoprsa"><path d="M194.36,170.79a19.64,19.64,0,1,1-19.64-19.63A19.62,19.62,0,0,1,194.36,170.79Z" style="fill: rgb(255, 255, 255); opacity: 0.7; transform-origin: 174.72px 170.8px 0px;" class="animable"></path></g><circle cx="174.72" cy="168.94" r="7.03" style="fill: rgb(255, 255, 255); transform-origin: 174.72px 168.94px 0px;" id="elmeo6rhtk4l8" class="animable"></circle><path d="M187.19,186a19.65,19.65,0,0,1-24.93,0c1.84-5.39,5.63-9.37,10.18-10.38a10.52,10.52,0,0,1,4.56,0C181.56,176.6,185.34,180.58,187.19,186Z" style="fill: rgb(255, 255, 255); transform-origin: 174.725px 182.915px 0px;" id="ellp0q6qansl" class="animable"></path><text transform="translate(162.14 247.82)" style="opacity:0.5;font-size:4px;font-family:Montserrat-Regular, Montserrat">Sign up n<tspan x="18.88" y="0" style="letter-spacing:-0.02001953125em">o</tspan><tspan x="21.3" y="0" style="letter-spacing:0.0001220703125em">w</tspan></text><rect x="126.99" y="253.58" width="95.47" height="16.35" rx="8.17" style="fill: rgb(255, 193, 0); transform-origin: 174.725px 261.755px 0px;" id="elbqymw21fp6n" class="animable"></rect><g id="elgsv0fo04zup"><g style="opacity: 0.5; transform-origin: 173.464px 279.61px 0px;" class="animable"><text transform="translate(156.73 280.86)" style="font-size:4px;font-family:Montserrat-Regular, Montserrat">Forgot Pas<tspan x="21.01" y="0" style="letter-spacing:-0.0050048828125em">s</tspan><tspan x="22.87" y="0" style="letter-spacing:-0.0198974609375em">w</tspan><tspan x="26.36" y="0">ord?</tspan></text></g></g><text transform="translate(163.65 264.3)" style="font-size:8px;fill:#fff;font-family:Montserrat-Medium, Montserrat;font-weight:500">Login</text><rect x="126.99" y="198.38" width="95.47" height="16.35" rx="8.17" style="fill: rgb(255, 255, 255); transform-origin: 174.725px 206.555px 0px;" id="elbasdcuxf9" class="animable"></rect><rect x="126.99" y="221.56" width="95.47" height="16.35" rx="8.17" style="fill: rgb(255, 255, 255); transform-origin: 174.725px 229.735px 0px;" id="eldmx1k1ghact" class="animable"></rect><g id="elc8e541nj8eb"><g style="opacity: 0.5; transform-origin: 158.033px 206.458px 0px;" class="animable"><text transform="translate(137.46 208.02)" style="font-size:5px;font-family:Montserrat-Regular, Montserrat">Name@mail.<tspan x="32.04" y="0" style="letter-spacing:-0.02099609375em">c</tspan><tspan x="34.76" y="0">om</tspan></text></g></g><text transform="translate(137.46 234.18)" style="opacity:0.5;font-size:7px;font-family:Montserrat-Regular, Montserrat">*******</text><g id="elsh9b9nxngmn"><path d="M205.66,202.71v7.68h10.88v-7.68Zm9.1.84-3.66,2.5-3.67-2.5Zm-8.27,6v-5.63l4.61,3.14,4.6-3.14v5.63Z" style="opacity: 0.2; transform-origin: 211.1px 206.55px 0px;" class="animable"></path></g><g id="elcewh4e9uek"><g style="opacity: 0.2; transform-origin: 211.095px 230.125px 0px;" class="animable"><path d="M213.67,228.46v-.93a2.14,2.14,0,0,0-2.13-2.13h-1.16a2.14,2.14,0,0,0-2.13,2.13v.93H206.5v6.39h9.19v-6.39Zm-4.58-.93a1.29,1.29,0,0,1,1.29-1.29h1.16a1.29,1.29,0,0,1,1.29,1.29v.93h-3.74Zm5.77,6.48h-7.52V229.3h7.52Z" id="elj0ylznzrp3a" style="transform-origin: 211.095px 230.125px 0px;" class="animable"></path><path d="M210.86,231.91v.76h.48v-.76a.46.46,0,0,0,.23-.4.48.48,0,1,0-.95,0A.47.47,0,0,0,210.86,231.91Z" id="els29hn5zcns" style="transform-origin: 211.095px 231.815px 0px;" class="animable"></path></g></g></g><g id="freepik--speech-bubble--inject-1" style="transform-origin: 337.285px 170.945px 0px;" class="animable"><path d="M351.66,145.65H322.93a8.85,8.85,0,0,0-8.85,8.85v25a8.85,8.85,0,0,0,8.85,8.85h11.36l3,7.89,3-7.89h11.36a8.84,8.84,0,0,0,8.84-8.85v-25A8.84,8.84,0,0,0,351.66,145.65Z" style="fill: rgb(255, 193, 0); transform-origin: 337.285px 170.945px 0px;" id="ely64gft4udl" class="animable"></path><g id="elqflowoa9oom"><path d="M351.66,145.65H322.93a8.85,8.85,0,0,0-8.85,8.85v25a8.85,8.85,0,0,0,8.85,8.85h11.36l3,7.89,3-7.89h11.36a8.84,8.84,0,0,0,8.84-8.85v-25A8.84,8.84,0,0,0,351.66,145.65Z" style="fill: rgb(255, 255, 255); opacity: 0.7; transform-origin: 337.285px 170.945px 0px;" class="animable"></path></g><path d="M335.8,173.26a1.31,1.31,0,0,1-1-.46l-5.6-6.59a1.31,1.31,0,0,1,2-1.7l4.6,5.42,7.59-9a1.31,1.31,0,1,1,2,1.7L336.8,172.8A1.33,1.33,0,0,1,335.8,173.26Z" style="fill: rgb(255, 255, 255); transform-origin: 337.295px 166.864px 0px;" id="elmn7q0id9zb" class="animable"></path><g id="el1lheflm4hp7"><circle cx="337.29" cy="166.89" r="14.26" style="fill: rgb(255, 193, 0); transform-origin: 337.29px 166.89px 0px; transform: rotate(-45deg);" class="animable"></circle></g></g><g id="freepik--Character--inject-1" style="transform-origin: 292.23px 310.056px 0px;" class="animable"><polygon points="390.69 416.75 397.29 416.75 383.79 340.56 377.19 340.56 390.69 416.75" style="fill: rgb(38, 50, 56); transform-origin: 387.24px 378.655px 0px;" id="elgk5ehbnz7zq" class="animable"></polygon><polygon points="245.53 416.75 252.14 416.75 238.64 340.56 232.03 340.56 245.53 416.75" style="fill: rgb(38, 50, 56); transform-origin: 242.085px 378.655px 0px;" id="elgh69w23kp0i" class="animable"></polygon><g id="elm2ugoecvhys"><polygon points="390.69 416.75 397.29 416.75 383.79 340.56 377.19 340.56 390.69 416.75" style="fill: rgb(255, 255, 255); opacity: 0.3; transform-origin: 387.24px 378.655px 0px;" class="animable"></polygon></g><g id="el8z883qgdsd"><polygon points="245.53 416.75 252.14 416.75 238.64 340.56 232.03 340.56 245.53 416.75" style="fill: rgb(255, 255, 255); opacity: 0.3; transform-origin: 242.085px 378.655px 0px;" class="animable"></polygon></g><g id="elhpgmf0qg7w"><rect x="188.09" y="378.65" width="199.15" height="6.69" style="fill: rgb(38, 50, 56); transform-origin: 287.665px 381.995px 0px; transform: rotate(180deg);" class="animable"></rect></g><g id="el366fv864ctr"><rect x="188.09" y="378.65" width="199.15" height="6.69" style="fill: rgb(255, 255, 255); opacity: 0.5; transform-origin: 287.665px 381.995px 0px; transform: rotate(180deg);" class="animable"></rect></g><polygon points="329.79 416.75 323.19 416.75 336.69 340.56 343.29 340.56 329.79 416.75" style="fill: rgb(38, 50, 56); transform-origin: 333.24px 378.655px 0px;" id="elqccmmj2pnei" class="animable"></polygon><polygon points="184.64 416.75 178.03 416.75 191.53 340.56 198.14 340.56 184.64 416.75" style="fill: rgb(38, 50, 56); transform-origin: 188.085px 378.655px 0px;" id="el8amzy5t5d7n" class="animable"></polygon><g id="elgo5lq6ryi4v"><polygon points="329.79 416.75 323.19 416.75 336.69 340.56 343.29 340.56 329.79 416.75" style="fill: rgb(255, 255, 255); opacity: 0.3; transform-origin: 333.24px 378.655px 0px;" class="animable"></polygon></g><g id="el4dku1ol7986"><polygon points="184.64 416.75 178.03 416.75 191.53 340.56 198.14 340.56 184.64 416.75" style="fill: rgb(255, 255, 255); opacity: 0.3; transform-origin: 188.085px 378.655px 0px;" class="animable"></polygon></g><polygon points="244.52 337.59 251.09 337.59 262.09 276.44 255.52 276.44 244.52 337.59" style="fill: rgb(38, 50, 56); transform-origin: 253.305px 307.015px 0px;" id="elbun4waq2uov" class="animable"></polygon><g id="elrpq17cvsku"><polygon points="244.52 337.59 251.09 337.59 262.09 276.44 255.52 276.44 244.52 337.59" style="fill: rgb(255, 255, 255); opacity: 0.3; transform-origin: 253.305px 307.015px 0px;" class="animable"></polygon></g><polygon points="375.01 337.59 381.58 337.59 392.58 276.44 386.01 276.44 375.01 337.59" style="fill: rgb(38, 50, 56); transform-origin: 383.795px 307.015px 0px;" id="elmx1a8o2usbc" class="animable"></polygon><polygon points="309.76 337.59 316.33 337.59 327.33 276.44 320.76 276.44 309.76 337.59" style="fill: rgb(38, 50, 56); transform-origin: 318.545px 307.015px 0px;" id="elui0nrk0268" class="animable"></polygon><g id="elnkss3scn4xq"><polygon points="375.01 337.59 381.58 337.59 392.58 276.44 386.01 276.44 375.01 337.59" style="fill: rgb(255, 255, 255); opacity: 0.3; transform-origin: 383.795px 307.015px 0px;" class="animable"></polygon></g><g id="elmrzrk6cws"><polygon points="309.76 337.59 316.33 337.59 327.33 276.44 320.76 276.44 309.76 337.59" style="fill: rgb(255, 255, 255); opacity: 0.3; transform-origin: 318.545px 307.015px 0px;" class="animable"></polygon></g><polygon points="233.17 280.62 405.74 280.62 407.8 269.18 235.23 269.18 233.17 280.62" style="fill: rgb(38, 50, 56); transform-origin: 320.485px 274.9px 0px;" id="el004db5wteoodh" class="animable"></polygon><polygon points="229.45 301.32 402.02 301.32 404.08 289.88 231.51 289.88 229.45 301.32" style="fill: rgb(38, 50, 56); transform-origin: 316.765px 295.6px 0px;" id="ellnaagcnl1lq" class="animable"></polygon><polygon points="225.72 322.02 398.29 322.02 400.35 310.58 227.78 310.58 225.72 322.02" style="fill: rgb(38, 50, 56); transform-origin: 313.035px 316.3px 0px;" id="elpd8l9x4zokl" class="animable"></polygon><g id="elug6qf9ys1sk"><rect x="176.66" y="335.79" width="219.93" height="7.92" style="fill: rgb(38, 50, 56); transform-origin: 286.625px 339.75px 0px; transform: rotate(180deg);" class="animable"></rect></g><g id="elh9pky3teqa"><polygon points="233.17 280.62 405.74 280.62 407.8 269.18 235.23 269.18 233.17 280.62" style="fill: rgb(255, 255, 255); opacity: 0.5; transform-origin: 320.485px 274.9px 0px;" class="animable"></polygon></g><g id="el4jngr44jze"><polygon points="229.45 301.32 402.02 301.32 404.08 289.88 231.51 289.88 229.45 301.32" style="fill: rgb(255, 255, 255); opacity: 0.5; transform-origin: 316.765px 295.6px 0px;" class="animable"></polygon></g><g id="elih2k7m3tlb"><polygon points="225.72 322.02 398.29 322.02 400.35 310.58 227.78 310.58 225.72 322.02" style="fill: rgb(255, 255, 255); opacity: 0.5; transform-origin: 313.035px 316.3px 0px;" class="animable"></polygon></g><g id="elkab47dxda6"><rect x="176.66" y="335.79" width="219.93" height="7.92" style="fill: rgb(255, 255, 255); opacity: 0.5; transform-origin: 286.625px 339.75px 0px; transform: rotate(180deg);" class="animable"></rect></g><g id="elhei96afs6z9"><rect x="176.66" y="335.79" width="165.93" height="7.92" style="fill: rgb(255, 255, 255); opacity: 0.2; transform-origin: 259.625px 339.75px 0px; transform: rotate(180deg);" class="animable"></rect></g><path d="M325.59,254.21c-4.65,4.91-15.8,16.94-22.7,16.73-7.28-.78-15.42-12-19.3-17.68A2.5,2.5,0,0,1,287.3,250c4.74,3.94,11.46,10.11,15.93,11.91-.68,0-.81.14-.19-.25,5.62-4,10.37-9.42,15.25-14.28,4.65-4.53,11.51,1.88,7.3,6.83Z" style="fill: rgb(233, 179, 118); transform-origin: 305.053px 258.39px 0px;" id="elfu3hexc3mvl" class="animable"></path><path d="M323.05,245.25v14.33s-3,2.52-6.75,5.3c-1.86,1.39-3.89,2.84-5.79,4.07-2.89,1.88-5.49,3.26-6.81,3.18-3.94-.24-12.49-6.35-12.49-6.35l5.62-9.36s6.46,3.95,6.87,4.22S317.66,245.34,323.05,245.25Z" style="fill: rgb(255, 193, 0); transform-origin: 307.13px 258.692px 0px;" id="elv9cootepwug" class="animable"></path><g id="elznl5l7n90jo"><path d="M316.3,264.88c-1.86,1.39-3.89,2.84-5.79,4.07.45-8.22,4.32-11.38,4.32-11.38A14.27,14.27,0,0,1,316.3,264.88Z" style="opacity: 0.2; transform-origin: 313.42px 263.26px 0px;" class="animable"></path></g><path d="M328.51,207.57c-6.9,5.63-6.08,21.83,1.67,32.46,0,0,16.56,1.39,25.76-2.73s-1-30.35-10.69-32.41A23.19,23.19,0,0,0,328.51,207.57Z" style="fill: rgb(38, 50, 56); transform-origin: 341.677px 222.305px 0px;" id="elghej5fd78rn" class="animable"></path><path d="M328.92,224.4c-2.53-4.36-5-16.13,5.47-19.76,13.13-4.54,19,3.83,20.15,12.13s-3.54,14.57-12.22,13.95S330.66,227.42,328.92,224.4Z" style="fill: rgb(38, 50, 56); transform-origin: 340.712px 217.061px 0px;" id="eluiteoj2eq8d" class="animable"></path><path d="M314.82,257.57c-1.28,6.07,1,20.37,1.34,31.15l30.92,3.56c0-3.38.63-8.28,2.65-16.07,1.15-4.56,2.81-10.12,5.08-16.94.33-1,.68-2,1-3.11a7.69,7.69,0,0,0-6-10.33c-1.3-.21-2.68-.39-4.09-.53a104,104,0,0,0-15-.79c-1.63.05-3.33.17-4.95.31C320,245.31,316,251.89,314.82,257.57Z" style="fill: rgb(38, 50, 56); transform-origin: 335.373px 268.385px 0px;" id="el3s0o2gda2n1" class="animable"></path><path d="M345.57,228.41c-1.55,4.74-3.62,13.47-.66,16.84,0,0-4.52-.92-14.51,4.54-2.59-4.16-.44-5.33-.44-5.33,5.53-1,5.89-5,5.44-8.73Z" style="fill: rgb(235, 179, 118); transform-origin: 337.346px 239.1px 0px;" id="elo80cn6nadh" class="animable"></path><g id="elsuiew74chs"><path d="M341.43,231.39l-6,4.33a15,15,0,0,1,.12,2.67c2.09-.19,5.19-2.28,5.68-4.4A7.18,7.18,0,0,0,341.43,231.39Z" style="opacity: 0.2; transform-origin: 338.45px 234.89px 0px;" class="animable"></path></g><path d="M347.64,217.34c.11,7.91.32,11.26-3.36,15.6-5.52,6.53-15.27,4.93-17.74-2.79-2.22-7-2-18.73,5.46-22.44A10.8,10.8,0,0,1,347.64,217.34Z" style="fill: rgb(255, 181, 115); transform-origin: 336.498px 221.79px 0px;" id="el2s1t4k3wyzh" class="animable"></path><path d="M340.93,209.94c-2.19,2.75,2.8,11.41,6.74,12.88C355.32,220.3,347.48,201.73,340.93,209.94Z" style="fill: rgb(38, 50, 56); transform-origin: 345.611px 215.34px 0px;" id="elmuelj1me1en" class="animable"></path><path d="M331.56,206.25c-2.91,1.28-5.64,6.75-6,8.79,4.33.33,15.48-4.67,15.48-4.67s7.85,1.44,3.63-2.1S331.56,206.25,331.56,206.25Z" style="fill: rgb(38, 50, 56); transform-origin: 335.738px 210.491px 0px;" id="ely6e4km6ve2" class="animable"></path><path d="M334.48,220.56c0,.64-.25,1.18-.67,1.22s-.8-.47-.85-1.11.26-1.18.68-1.22S334.43,219.92,334.48,220.56Z" style="fill: rgb(38, 50, 56); transform-origin: 333.717px 220.615px 0px;" id="el9poy49p8xis" class="animable"></path><path d="M327.23,221.1c0,.64-.25,1.19-.67,1.22s-.8-.46-.85-1.1.26-1.19.68-1.22S327.18,220.46,327.23,221.1Z" style="fill: rgb(38, 50, 56); transform-origin: 326.467px 221.16px 0px;" id="elnis8c7gfd99" class="animable"></path><path d="M326.57,220l-1.57-.33S325.88,220.83,326.57,220Z" style="fill: rgb(38, 50, 56); transform-origin: 325.785px 219.985px 0px;" id="elfqw0nkz4fv" class="animable"></path><path d="M330.31,221.9a17.66,17.66,0,0,1-2,4.27,2.78,2.78,0,0,0,2.32.25Z" style="fill: rgb(237, 137, 62); transform-origin: 329.47px 224.233px 0px;" id="elx74uop173v" class="animable"></path><path d="M334.33,228.67a6.38,6.38,0,0,1-.94.15.19.19,0,0,1,0-.38,5.07,5.07,0,0,0,4-2.3.18.18,0,0,1,.25-.07.19.19,0,0,1,.08.25A5.27,5.27,0,0,1,334.33,228.67Z" style="fill: rgb(38, 50, 56); transform-origin: 335.47px 227.433px 0px;" id="elkmkx23utxa9" class="animable"></path><path d="M350.31,224.4a5.76,5.76,0,0,1-2.76,3.45c-1.78,1-3.12-.53-3-2.45.11-1.72,1.17-4.3,3.15-4.48A2.6,2.6,0,0,1,350.31,224.4Z" style="fill: rgb(255, 181, 115); transform-origin: 347.504px 224.54px 0px;" id="el1gvt6fgy2er" class="animable"></path><path d="M338,218.68a.39.39,0,0,1-.41-.18c-.9-1.49-3.14-1.67-3.16-1.67a.38.38,0,0,1,.05-.76c.11,0,2.66.22,3.76,2a.38.38,0,0,1-.13.52Z" style="fill: rgb(38, 50, 56); transform-origin: 336.184px 217.378px 0px;" id="eli6mkips5i6" class="animable"></path><path d="M325.56,217.73a.37.37,0,0,1-.36-.11.37.37,0,0,1,0-.53,3.71,3.71,0,0,1,3.28-1.05.37.37,0,0,1-.17.73h0a3,3,0,0,0-2.59.86A.42.42,0,0,1,325.56,217.73Z" style="fill: rgb(38, 50, 56); transform-origin: 326.929px 216.862px 0px;" id="el2mbvec1dw8c" class="animable"></path><path d="M333.82,219.48l-1.57-.33S333.13,220.29,333.82,219.48Z" style="fill: rgb(38, 50, 56); transform-origin: 333.035px 219.46px 0px;" id="elqorx2i1aj3" class="animable"></path><path d="M305.72,248.69l.75,2.34a2.85,2.85,0,0,0,1.85,1.85l4.12,1.32a5.32,5.32,0,0,0,4.83-.81l.85-.64c-1-4-4.95-7.54-4.95-7.54l-1-1.15a2.39,2.39,0,0,0-3.37-.27l-2.29,2A2.73,2.73,0,0,0,305.72,248.69Z" style="fill: rgb(235, 179, 118); transform-origin: 311.852px 248.838px 0px;" id="el40l8g98qocc" class="animable"></path><path d="M278,250.83l.75,2.35a2.88,2.88,0,0,0,1.86,1.85l4.11,1.32a5.35,5.35,0,0,0,4.83-.81l.86-.64c-1-4-5-7.55-5-7.55l-1-1.14a2.38,2.38,0,0,0-3.38-.27l-2.29,2A2.75,2.75,0,0,0,278,250.83Z" style="fill: rgb(235, 179, 118); transform-origin: 284.134px 250.982px 0px;" id="elqmm6axlyo7r" class="animable"></path><g id="el4q57f2zn0gn"><path d="M337.8,263.39c2,5.86,7.07,10.23,11.93,12.82,1.15-4.56,2.81-10.12,5.08-16.94-3.05-4.26-7.32-7.29-12.76-6.47C342.05,252.8,335.79,257.46,337.8,263.39Z" style="opacity: 0.2; transform-origin: 346.106px 264.438px 0px;" class="animable"></path></g><path d="M228.07,379.65l5.22,2.11s44.35-66.9,48.46-64.39c14.87,9.11,45.44,25.39,59.91,15.53s5.88-35.85,5.88-35.85-28.14-9.88-31.62-3.77a47.31,47.31,0,0,0-2.39,5.63c-.72,1.93-1.28,3.56-1.28,3.56h0c-.85-.4-28.43-13.67-41.42-8.2C257.62,299.82,228.07,379.65,228.07,379.65Z" style="fill: rgb(235, 179, 118); transform-origin: 289.071px 336.523px 0px;" id="eljwamqw9zvo" class="animable"></path><path d="M324.25,336.47s-13.95.91-33.06-5.58c0,0-4.71,53.28-7.88,82.2l-6.4-.9s-10.89-78.94-8.74-88.56S282,313.37,282,313.37,304.27,329.74,324.25,336.47Z" style="fill: rgb(235, 179, 118); transform-origin: 296.069px 363.23px 0px;" id="el03ck6x2qqt88" class="animable"></path><path d="M324.25,336.47A103.8,103.8,0,0,1,296.34,333l1.82-7.58C305.19,330.07,315,332.9,324.25,336.47Z" style="fill: rgb(255, 193, 0); transform-origin: 310.295px 330.949px 0px;" id="elv4ui17ageh" class="animable"></path><g id="elcffpv3kok3"><path d="M324.25,336.47A103.8,103.8,0,0,1,296.34,333l1.82-7.58C305.19,330.07,315,332.9,324.25,336.47Z" style="fill: rgb(255, 255, 255); opacity: 0.4; transform-origin: 310.295px 330.949px 0px;" class="animable"></path></g><polygon points="296.98 324.65 295.31 333.09 297.85 333.96 299.81 326.51 296.98 324.65" style="fill: rgb(255, 193, 0); transform-origin: 297.56px 329.305px 0px;" id="elt8xdigy76p" class="animable"></polygon><g id="elffhp18anfnw"><polygon points="296.98 324.65 295.31 333.09 297.85 333.96 299.81 326.51 296.98 324.65" style="fill: rgb(255, 255, 255); isolation: isolate; opacity: 0.6; transform-origin: 297.56px 329.305px 0px;" class="animable"></polygon></g><g id="elq7rv09td6b"><path d="M270.49,357.18c-1-21-1.44-31.84,2-36.17a15.22,15.22,0,0,1,8.85-5.12c4.48,11.35,24,18.43,24.54,18.62h0c7.29,1.51,18.09,1.9,18.36,2a71.87,71.87,0,0,1-26.09-11A164.6,164.6,0,0,1,282,313.38s-11.65.63-13.8,10.25c-.88,3.94.42,19.46,2.26,36.45A26.53,26.53,0,0,0,270.49,357.18Z" style="isolation: isolate; opacity: 0.2; transform-origin: 296.079px 336.73px 0px;" class="animable"></path></g><path d="M222.86,375.26a.83.83,0,0,1,.2-.94.93.93,0,0,1,.67-.35,3.68,3.68,0,0,1,1.89.63c-.49-.64-.87-1.33-.7-1.76.11-.28.39-.43.84-.43a1.36,1.36,0,0,1,1.05.45c.87.95.68,3.12.68,3.22a.3.3,0,0,1,0,.1.1.1,0,0,1,0,.05.18.18,0,0,1-.07,0h-.08a14.3,14.3,0,0,1-2.79-.21C223.72,375.93,223.06,375.68,222.86,375.26Zm.91-.82a.47.47,0,0,0-.35.17c-.23.28-.17.41-.15.45.24.48,1.91.72,3.32.76C225.78,375.21,224.51,374.37,223.77,374.44Zm2-1.57c-.13,0-.36,0-.41.14-.14.37.72,1.52,1.69,2.52a3.79,3.79,0,0,0-.58-2.36.88.88,0,0,0-.48-.28Z" style="fill: rgb(38, 50, 56); transform-origin: 225.15px 374.322px 0px;" id="eli1jikal0gyj" class="animable"></path><path d="M270.65,407.62a.85.85,0,0,1-.22-.94.94.94,0,0,1,.46-.6,3.67,3.67,0,0,1,2-.24c-.72-.37-1.35-.83-1.38-1.29q0-.45.57-.75a1.34,1.34,0,0,1,1.14,0c1.2.48,2,2.52,2,2.61a.22.22,0,0,1,0,.11h0a.43.43,0,0,1,0,0h0a.14.14,0,0,1-.05.08l-.05.05h0a10.92,10.92,0,0,1-3.67,1.16A1.21,1.21,0,0,1,270.65,407.62Zm.48-1.14a.47.47,0,0,0-.25.31c-.09.35,0,.44.06.47.42.33,2-.17,3.32-.74C273.27,406.32,271.76,406.11,271.13,406.48Zm1.12-2.26c-.12.06-.32.17-.31.3,0,.39,1.29,1.06,2.61,1.54a3.82,3.82,0,0,0-1.54-1.87.83.83,0,0,0-.34-.07A.92.92,0,0,0,272.25,404.22Z" style="fill: rgb(38, 50, 56); transform-origin: 272.799px 405.745px 0px;" id="elfv5fyyqfyi8" class="animable"></path><path d="M236.58,379.51c.29-.66-8-3.84-8-3.84s-7.23,2.74-12.54,1.66-4,3,1.4,5.48l13.22,6.1C234.51,390.66,233.63,386.33,236.58,379.51Z" style="fill: rgb(38, 50, 56); transform-origin: 224.624px 382.485px 0px;" id="eleliz42hldzs" class="animable"></path><path d="M284.87,405.56c0-.72-8.83-.05-8.83-.05s-5.36,5.58-10.61,6.88-2.27,4.43,3.62,4.36l14.56-.18C287.79,416.52,285.13,413,284.87,405.56Z" style="fill: rgb(38, 50, 56); transform-origin: 274.327px 410.989px 0px;" id="elgxj6m61fmzh" class="animable"></path><path d="M347.54,297.05s-28.14-9.88-31.62-3.77a49,49,0,0,0-2.39,5.63c-.72,1.93-1.28,3.56-1.28,3.56h0l-2.31-1.06-9.42,28.13c15,8.32,36.17,9.28,44.85,3.37C359.81,323.05,347.54,297.05,347.54,297.05Z" style="fill: rgb(255, 193, 0); transform-origin: 326.462px 313.985px 0px;" id="eldopkyjgex0p" class="animable"></path><g id="el5fdylmnfzv"><g style="opacity: 0.4; transform-origin: 326.462px 313.985px 0px;" class="animable"><path d="M347.54,297.05s-28.14-9.88-31.62-3.77a49,49,0,0,0-2.39,5.63c-.72,1.93-1.28,3.56-1.28,3.56h0l-2.31-1.06-9.42,28.13c15,8.32,36.17,9.28,44.85,3.37C359.81,323.05,347.54,297.05,347.54,297.05Z" style="fill: rgb(255, 255, 255); transform-origin: 326.462px 313.985px 0px;" id="elxh1k9ytshlq" class="animable"></path></g></g><g id="elskx3yw2of6k"><path d="M312.25,302.47l16.23,6.89s-8.33-7-15-10.45C312.81,300.84,312.25,302.47,312.25,302.47Z" style="isolation: isolate; opacity: 0.3; transform-origin: 320.365px 304.135px 0px;" class="animable"></path></g><polygon points="315.52 294.05 316.09 287.11 347.54 291.29 347.95 297.99 315.52 294.05" style="fill: rgb(255, 193, 0); transform-origin: 331.735px 292.55px 0px;" id="el054lmsfefzif" class="animable"></polygon><g id="eldr58m7xaa5"><polygon points="315.52 294.05 316.09 287.11 347.54 291.29 347.95 297.99 315.52 294.05" style="fill: rgb(255, 255, 255); opacity: 0.4; transform-origin: 331.735px 292.55px 0px;" class="animable"></polygon></g><polygon points="316.15 287.79 317.8 288.03 317.29 293.44 315.93 293.28 316.15 287.79" style="fill: rgb(38, 50, 56); transform-origin: 316.865px 290.615px 0px;" id="elxyqx04jnc1o" class="animable"></polygon><polygon points="319.36 288.25 337.09 290.83 336.63 295.75 318.86 293.63 319.36 288.25" style="fill: rgb(38, 50, 56); transform-origin: 327.975px 292px 0px;" id="elb8v238btdm" class="animable"></polygon><polygon points="347.54 297.05 338.19 295.94 338.65 291.06 338.65 291.06 347.09 292.28 347.54 297.05" style="fill: rgb(38, 50, 56); transform-origin: 342.865px 294.055px 0px;" id="el8fdjbaf83x" class="animable"></polygon><g id="elzuph0phv4va"><polygon points="316.15 287.79 317.8 288.03 317.29 293.44 315.93 293.28 316.15 287.79" style="isolation: isolate; opacity: 0.2; transform-origin: 316.865px 290.615px 0px;" class="animable"></polygon></g><g id="elgiwy18v4rda"><polygon points="319.36 288.25 337.09 290.83 336.63 295.75 318.86 293.63 319.36 288.25" style="isolation: isolate; opacity: 0.2; transform-origin: 327.975px 292px 0px;" class="animable"></polygon></g><g id="elr4x7a5ofyg"><polygon points="347.54 297.05 338.19 295.94 338.65 291.06 338.65 291.06 347.09 292.28 347.54 297.05" style="isolation: isolate; opacity: 0.2; transform-origin: 342.865px 294.055px 0px;" class="animable"></polygon></g><path d="M328.75,295.46h-.19l-5.05-.67a1.43,1.43,0,0,1-.95-.55,1.41,1.41,0,0,1-.29-1.06l.45-3.38a1.48,1.48,0,0,1,.55-1,1.44,1.44,0,0,1,1.06-.28l5.05.67a1.43,1.43,0,0,1,1.24,1.61l-.45,3.38A1.43,1.43,0,0,1,328.75,295.46Zm-4.61-5.92a.43.43,0,0,0-.26.09.46.46,0,0,0-.17.29l-.44,3.38a.41.41,0,0,0,.08.32.46.46,0,0,0,.29.17h0l5.05.67a.44.44,0,0,0,.49-.38l.45-3.38a.45.45,0,0,0-.09-.32.46.46,0,0,0-.29-.17l-5.05-.67Z" style="fill: rgb(255, 255, 255); transform-origin: 326.445px 291.984px 0px;" id="el4au4hrt8ubn" class="animable"></path><path d="M329,292.78h-.08l-1.78-.29a.49.49,0,0,1-.41-.57.51.51,0,0,1,.57-.42l1.78.29a.5.5,0,0,1-.08,1Z" style="fill: rgb(255, 255, 255); transform-origin: 328.132px 292.144px 0px;" id="elo4e1tag851j" class="animable"></path><polygon points="308.58 299.46 311.2 300.84 302.31 331.06 298.58 330.32 308.58 299.46" style="fill: rgb(255, 193, 0); transform-origin: 304.89px 315.26px 0px;" id="eldgqynwibok" class="animable"></polygon><g id="elwagvjxu4v8"><polygon points="308.58 299.46 311.2 300.84 302.31 331.06 298.58 330.32 308.58 299.46" style="fill: rgb(255, 255, 255); isolation: isolate; opacity: 0.6; transform-origin: 304.89px 315.26px 0px;" class="animable"></polygon></g><path d="M306.48,269h-22a1.71,1.71,0,0,1-1.67-1.54l-3.07-29.25a1.39,1.39,0,0,1,1.4-1.54h22a1.72,1.72,0,0,1,1.68,1.54l3.06,29.25A1.38,1.38,0,0,1,306.48,269Z" style="fill: rgb(38, 50, 56); transform-origin: 293.811px 252.835px 0px;" id="els4e2wwx7fgq" class="animable"></path><g id="elkq6bnhf1owk"><path d="M306.48,269h-22a1.71,1.71,0,0,1-1.67-1.54l-3.07-29.25a1.39,1.39,0,0,1,1.4-1.54h22a1.72,1.72,0,0,1,1.68,1.54l3.06,29.25A1.38,1.38,0,0,1,306.48,269Z" style="fill: rgb(255, 255, 255); opacity: 0.6; transform-origin: 293.811px 252.835px 0px;" class="animable"></path></g><g id="elnjc97o9pb2"><path d="M305.56,269H284.45a1.71,1.71,0,0,1-1.67-1.54l-3.07-29.25a1.39,1.39,0,0,1,1.4-1.54h21.11a1.71,1.71,0,0,1,1.67,1.54L307,267.41A1.38,1.38,0,0,1,305.56,269Z" style="fill: rgb(255, 255, 255); opacity: 0.2; transform-origin: 293.359px 252.836px 0px;" class="animable"></path></g><path d="M292.71,250.39a2.15,2.15,0,0,0-2.17,2.39,2.65,2.65,0,0,0,2.59,2.4,2.16,2.16,0,0,0,2.17-2.4A2.66,2.66,0,0,1,292.71,250.39Z" style="fill: rgb(38, 50, 56); transform-origin: 292.92px 252.785px 0px;" id="ela2d5oq3e93" class="animable"></path><g id="el1ejf1wjatrb"><path d="M297.48,238.94H285.84a1.54,1.54,0,0,1-1.36-.88l-.7-1.44h15.36l-.45,1.44A1.24,1.24,0,0,1,297.48,238.94Z" style="opacity: 0.3; transform-origin: 291.46px 237.78px 0px;" class="animable"></path></g><path d="M353.66,305.87h-4.09s-5.11-15.34-8.09-28.34a94.31,94.31,0,0,1-1.91-10.43,29.9,29.9,0,0,1,1-11.58,29,29,0,0,1,5.18-10.22l-.83-.05c7.74-.08,11.92,2.6,12.44,7.42s-8,33.42-8.44,37.24S353.66,305.87,353.66,305.87Z" style="fill: rgb(255, 193, 0); transform-origin: 348.387px 275.559px 0px;" id="elsbvlsbz19gn" class="animable"></path><path d="M327.24,244.71s-8.19,12.9-10.38,18.38-.93,21.18-.93,21.18-4.19-18.89-1.5-28.25S321.79,244.74,327.24,244.71Z" style="fill: rgb(255, 193, 0); transform-origin: 320.384px 264.49px 0px;" id="elctevbp211ka" class="animable"></path><path d="M355.28,256.34c-4.31,6.18-14.6,20.69-23.46,17.29-4.67-2.13-8-6-11.09-9.75a79.72,79.72,0,0,1-7.21-10.78,2.49,2.49,0,0,1,4-2.95c2.84,2.95,5.8,5.91,8.75,8.65,2.57,2.32,5.87,5.34,8.85,6.43a1.9,1.9,0,0,0-.66-.17c-.17,0-.13,0,0-.11,5-3.42,8.84-9.3,12.55-14.19,3.86-5.33,11.77,0,8.29,5.58Z" style="fill: rgb(233, 179, 118); transform-origin: 334.643px 261.349px 0px;" id="ellck6ix5ldf" class="animable"></path><g id="elj4wrjlmft8t"><path d="M354.2,260s-7.2,12.28-12.72,17.49a94.31,94.31,0,0,1-1.91-10.43,29.9,29.9,0,0,1,1-11.58l5.7-4.7C349.1,248.45,354.2,260,354.2,260Z" style="opacity: 0.2; transform-origin: 346.796px 263.98px 0px;" class="animable"></path></g><path d="M354.71,248.68c3.77,2,2.63,7.47-2.31,13.93s-13.88,15.19-18.58,13.6-10-7.84-10-7.84l3.43-9.68s6.73,5.11,8.13,4.85,8.26-9.14,10.24-11.89S350.62,246.47,354.71,248.68Z" style="fill: rgb(255, 193, 0); transform-origin: 340.384px 262.11px 0px;" id="elfetujdms8fd" class="animable"></path><path d="M284.43,249.25l-.14,1.92a2.2,2.2,0,0,1-1.87,2l-2.61.39.62-7,2.18.38A2.19,2.19,0,0,1,284.43,249.25Z" style="fill: rgb(255, 181, 115); transform-origin: 282.123px 250.06px 0px;" id="elnyyr5zf2abd" class="animable"></path></g><defs>     <filter id="active" height="200%">         <feMorphology in="SourceAlpha" result="DILATED" operator="dilate" radius="2"></feMorphology>                <feFlood flood-color="#32DFEC" flood-opacity="1" result="PINK"></feFlood>        <feComposite in="PINK" in2="DILATED" operator="in" result="OUTLINE"></feComposite>        <feMerge>            <feMergeNode in="OUTLINE"></feMergeNode>            <feMergeNode in="SourceGraphic"></feMergeNode>        </feMerge>    </filter>    <filter id="hover" height="200%">        <feMorphology in="SourceAlpha" result="DILATED" operator="dilate" radius="2"></feMorphology>                <feFlood flood-color="#ff0000" flood-opacity="0.5" result="PINK"></feFlood>        <feComposite in="PINK" in2="DILATED" operator="in" result="OUTLINE"></feComposite>        <feMerge>            <feMergeNode in="OUTLINE"></feMergeNode>            <feMergeNode in="SourceGraphic"></feMergeNode>        </feMerge>            <feColorMatrix type="matrix" values="0   0   0   0   0                0   1   0   0   0                0   0   0   0   0                0   0   0   1   0 "></feColorMatrix>    </filter></defs></svg>